<svg width="25" height="24" viewBox="0 0 25 24" fill="none" xmlns="http://www.w3.org/2000/svg">
<path d="M1 4V8L2 9L5 6" stroke="black"/>
<path d="M1 4L4 1H6L7 2L8 3V5L9 6H16L17 5V3L18 2L19 1H21L24 4V8L23 9L19 6" stroke="black"/>
<path d="M3 8V13L4.2 14V17L5.4 18V21L6.6 22L7.8 23H16.2L17.4 22L18.6 21V18L19.8 17V14L21 13V8" stroke="black"/>
<path d="M12 21V20" stroke="#FD0000"/>
<path d="M12 20V19M12 17H14M12 17H10M12 17V19M12 17L14 19M14 17V19M14 17L12 19M14 19H12M10 17V19H12M10 17L12 19" stroke="black"/>
<path d="M10 19L12 17" stroke="black"/>
<path d="M10 6.5H13M10 6.5L15 10M10 6.5L15 8M10 6.5V7.5M15 6.5H13M15 6.5L10 10M15 6.5L10 8.5M15 6.5V7.5M13 6.5L15 10M15 10V8M15 10H14M10 10V9.25M10 10H11M10 8.5V7.5M10 8.5V9.25M15 8L12.5 10M15 8V7.5M12.5 10L10 7.5M12.5 10H14M12.5 10H11.25H11M12.5 10V13M10 7.5L14 10M14 10L11 13M14 10V11.5M10 9.25L15 7.5M11 10L14 13M11 10V11.5M11 13H12.5M11 13V11.5M14 13H12.5M14 13V11.5M14 13L15 14M14 11.5H11M15 14L16.1755 15.5674M15 14H13.75M15 14V15M10 14V15H9V15.5674M10 14H12.5M10 14L12.1421 14.7837M9 16H8V17H7.5M9 16V17.5M9 16H12H14.5H15M9 16V15.5674M15 22.5H9M15 22.5V21.75M15 22.5H15.5M15 16V20.125M15 16V15.5M15 16C14.5 16.5 14.7166 15.0495 14.5 14.8027M9 22.5H8L7 21.75M9 22.5L7.625 21.0625M9 22.5V21.5M9 22.5L11 20.5M9 20.5V18.25M9 20.5L8.25 20.375M9 20.5V21.5M6 20V21L6.5 21.375M6 20V18.5M6 20L6.75 20.125M7.5 17H6V17.75M7.5 17V20.25M7.5 20.25L6.75 20.125M7.5 20.25L8.25 20.375M6 18.5V17.75M6 18.5L8.23896 18.3134M9 18.25V17.5M9 18.25L8.23896 18.3134M9 17.5L6.70073 17.6916M6 17.75L6.70073 17.6916M6.70073 17.6916L6.75 20.125M6.75 20.125L6.5 21.375M6.75 20.125L7.625 21.0625M8.23896 18.3134L8.25 20.375M8.25 20.375L7.9375 20.7188M7 21.75L6.5 21.375M7 21.75L7.625 21.0625M7.625 21.0625L7.9375 20.7188M9 21.5L7.9375 20.7188M11 22L10.25 21M10.25 21L9.5 20H11V20.5M10.25 21L9.5 21.0625L10.25 22H13.75M11 20.5V21.375L13 21.5V20.75M14.5 21V22H13.75M14.5 21V20H13V20.75M14.5 21L13.75 20.875M13 20.75L13.75 20.875M13.75 20.875V22M15 20.125L16.1755 18.6299M15 20.125V20.9375M17.351 17.1347L16.1755 15.5674M17.351 17.1347L16.7633 17.8823M17.351 17.1347L17.6755 17.5674M16.1755 15.5674V17.0986M16.1755 18.6299V17.0986M16.1755 18.6299L16.7633 17.8823M16.1755 17.0986L15.5878 16.2993M15 15.5L15.5878 16.2993M15 15.5V15M15.5878 16.2993V19L16 19.8027M17 21.75L16 22.5H15.5M17 21.75L18 21V20.25M17 21.75L16.7633 21.289M18 19.5L17 20.25M18 19.5V18.75M18 19.5V20.25M15 21.75V20.9375M15 21.75L16 21M16.7633 17.8823L17 20.25M17 20.25L16 21M18 18.75V18L17.6755 17.5674M18 18.75L15 20.9375M17.6755 17.5674L16 19.8027M16 19.8027L16.7633 21.289M16 21L16.0878 21.5M16.1755 22L16.0878 21.5M16.0878 21.5L15.5 22.5M18 20.25L16.7633 21.289M12.5 14H13.75M12.5 14C12.6033 14.0775 12.7251 14.1718 12.8585 14.2789M13.75 14L13.5 15M15 15H13.5M13.5 15C13.3434 14.8049 12.9959 14.3875 12.8585 14.2789M12.8585 14.2789C13.287 14.6224 13.8361 15.0971 14.2843 15.5674M14.2843 15.5674L12.1421 14.7837M14.2843 15.5674C14.3594 15.6461 14.4316 14.7248 14.5 14.8027M12.1421 14.7837L11 15.0685M9 15.5674L11 15.0685M11 15.0685L14.5 14.8027" stroke="#FDFDFD"/>
<path d="M8 14H9V13H10V12M8 14V15H7M8 14V13M7 15V16H6M7 15V11M6 16H5V17V13M6 16V13M9 7V8M9 7H8M9 7L7.90895 5.90895M9 11H10V12M9 11H7M9 11V9M5 11H7M5 11V9M5 11V12M7 11V9M7 7V9M7 7H6M7 7H8M7 7V5.5M7 9H5M7 9H8M5 9V8M9 9H8M9 9V8M8 9V13M10 12H5M5 12V13M8 13H6M5 13H6M5 13H4V8H5M6 13V7M6 7H5V8M5 8H9M7 3V5M7 3L6 5L7 5.5M7 3L6 2H4M8 7V6L7.90895 5.90895M7 5L7.90895 5.90895M7 5V5.5" stroke="#F5921E"/>
<path d="M5.5 2.5L4 2M4 2L4.25 3M4 2L3 3M4.25 3H5H6L5.66667 4M4.25 3L4.42623 3.70491M5.33333 5L5 6L4.85656 5.42623M5.33333 5L5.91667 5.75M5.33333 5L5.66667 4M6.5 6.5L5.91667 5.75M5.91667 5.75L5 6.5L5.66667 4M5.66667 4L4.42623 3.70491M4.42623 3.70491L4.56967 4.27868M4.25 3.70491L4.57087 4.5M4.71311 4.85246L4.85656 5.42623M4.71311 4.85246L4.57087 4.5M4.71311 4.85246L4.56967 4.27868M4.85656 5.42623L3.66481 6.5M2 8L3.66481 6.5M2 8L4.57087 4.5M2 8V6M2 4H3M2 4L3 3M2 4L3.66481 6.5M2 4V5M4 4H3M3 4V3M3 3H4M4.57087 4.5L2 6M2 6V5M4.56967 4.27868L2 5" stroke="#F5921E"/>
<path d="M3 5.5L2.5 6.5" stroke="#F5921E"/>
<path d="M19 1.5H19.75M19 1.5L18.5 2.25M19 1.5L19.1538 5M18 5L16.5 6.5M18 5L20.5 2.29268M18 5V4M16.5 6.5L16 7V10.5M16.5 6.5L20 10.5M16 10.5L15 11V12M16 10.5L19 7M20 10.5V13L19 14V16L18 17L15 13V12M20 10.5V8L19 7M21.75 2.75L20.5 1.5H19.75M21.75 2.75L20.4519 3.875M21.75 2.75L22.375 3.375M21.75 2.75L20.125 2.5M19.1538 5L18 6L19 7M19.1538 5L21.0769 6.5M19.1538 5L19.8029 4.4375M23 5.5V4L22.375 3.375M23 5.5L20.4519 3.875M23 5.5V6.75M20.4519 3.875L20.1274 4.15625M22.375 3.375L22.1154 4M21.0769 6.5L23 8V6.75M21.0769 6.5L22.1154 4M19.8029 4.4375L23 6.75M19.8029 4.4375L20.1274 4.15625M22.1154 4L20.5 2.29268M19.75 1.5L20.5 2.29268M18.5 2.25L18 3V4M18.5 2.25L20.1274 4.15625M18.5 2.25L20.125 2.5M20.125 2.5L18 4M19.75 8L15 12" stroke="#F5921E"/>
<path d="M16 13L19 10L16 8" stroke="#F5921E"/>
<path d="M16.5 12.5L18 17L18.3077 15M18.7692 12L19 10.5L19.5 13H17.5M18.7692 12L15.5 10.5V13H17.5M18.7692 12L18.3077 15M17.5 13V11M18.3736 5L16 14L17.5 11M18.3736 5L18.7692 3.5L21.5 3L18.3736 5ZM18.3077 15L17.5 14.5V11M17.5 11L18 10V14H17.5L16 12L16.5 7L16 8H19V9.5L17.5 5.5V11Z" stroke="#F5921E"/>
<path d="M7.5 11V13H9" stroke="black"/>
<path d="M8.5 11V12V12.5" stroke="white"/>
<path d="M16.5 11V12.5H18" stroke="black"/>
<path d="M17.5 11V11.5V12" stroke="white"/>
</svg>
